<svg width="25" height="24" viewBox="0 0 25 24" fill="none" xmlns="http://www.w3.org/2000/svg">
<path d="M1.5 3V5H23.5V3C23.5 2.46957 23.2893 1.96086 22.9142 1.58579C22.5391 1.21071 22.0304 1 21.5 1H3.5C2.96957 1 2.46086 1.21071 2.08579 1.58579C1.71071 1.96086 1.5 2.46957 1.5 3ZM4.507 4.008C4.30918 4.0082 4.11574 3.94972 3.95116 3.83996C3.78658 3.7302 3.65825 3.57409 3.58241 3.39138C3.50657 3.20867 3.48662 3.00757 3.52509 2.81352C3.56357 2.61948 3.65873 2.4412 3.79854 2.30125C3.93835 2.1613 4.11653 2.06595 4.31054 2.02729C4.50455 1.98862 4.70567 2.00837 4.88845 2.08403C5.07124 2.15968 5.22747 2.28786 5.3374 2.45233C5.44733 2.6168 5.506 2.81018 5.506 3.008C5.506 3.27322 5.40064 3.52757 5.21311 3.71511C5.02557 3.90264 4.77222 4.008 4.507 4.008ZM7.503 4.007C7.30522 4.007 7.11188 3.94835 6.94743 3.83847C6.78298 3.72859 6.65481 3.57241 6.57912 3.38968C6.50343 3.20696 6.48363 3.00589 6.52221 2.81191C6.5608 2.61793 6.65604 2.43975 6.79589 2.29989C6.93575 2.16004 7.11393 2.0648 7.30791 2.02621C7.50189 1.98763 7.70296 2.00743 7.88568 2.08312C8.06841 2.15881 8.22459 2.28698 8.33447 2.45143C8.44435 2.61588 8.503 2.80922 8.503 3.007C8.503 3.27222 8.39764 3.52657 8.21011 3.71411C8.02257 3.90164 7.76822 4.007 7.503 4.007ZM1.5 6V20C1.5 20.5304 1.71071 21.0391 2.08579 21.4142C2.46086 21.7893 2.96957 22 3.5 22H21.5C22.0304 22 22.5391 21.7893 22.9142 21.4142C23.2893 21.0391 23.5 20.5304 23.5 20V6H1.5ZM21.5 20H3.5V8H21.5V20Z" fill="white"/>
<path d="M9.5 18L10.2 17.3L10.9 16.6L9.6 15.3L8.3 14L9.6 12.7L10.9 11.4L10.2 10.7L9.5 10L7.5 12L5.5 14L7.5 16L9.5 18ZM14.1 16.6L14.8 17.3L15.5 18L17.5 16L19.5 14L17.5 12L15.5 10L14.8 10.7L14.1 11.4L15.4 12.7L16.7 14L15.4 15.3L14.1 16.6Z" fill="white"/>
<path d="M9.5 18L10.2 17.3L10.9 16.6L9.6 15.3L8.3 14L9.6 12.7L10.9 11.4L10.2 10.7L9.5 10L7.5 12L5.5 14L7.5 16L9.5 18ZM14.1 16.6L14.8 17.3L15.5 18L17.5 16L19.5 14L17.5 12L15.5 10L14.8 10.7L14.1 11.4L15.4 12.7L16.7 14L15.4 15.3L14.1 16.6Z" fill="white"/>
</svg>
